<?xml version="1.0" encoding="utf-8"?>
<!-- Generator: Adobe Illustrator 24.0.1, SVG Export Plug-In . SVG Version: 6.00 Build 0)  -->
<svg version="1.1" id="Layer_1" xmlns="http://www.w3.org/2000/svg" xmlns:xlink="http://www.w3.org/1999/xlink" x="0px" y="0px"
	 viewBox="0 0 363.5 131.1" style="enable-background:new 0 0 363.5 131.1;" xml:space="preserve">
<style type="text/css">
	.st0{fill:url(#SVGID_1_);}
	.st1{fill:#231F20;}
	.st2{fill:#000099;}
	.st3{fill:#FF0000;}
	.st4{fill:#FF6D70;}
	.st5{fill:#08AACD;}
</style>
<g>
	
		<linearGradient id="SVGID_1_" gradientUnits="userSpaceOnUse" x1="0" y1="1293.7241" x2="111.8663" y2="1293.7241" gradientTransform="matrix(1 0 0 1 0 -1232.5199)">
		<stop  offset="0" style="stop-color:#5BA767"/>
		<stop  offset="0.1212" style="stop-color:#3C9B6C"/>
		<stop  offset="0.3129" style="stop-color:#118973"/>
		<stop  offset="0.4104" style="stop-color:#008276"/>
		<stop  offset="0.8481" style="stop-color:#00AEC3"/>
		<stop  offset="1" style="stop-color:#0096D2"/>
	</linearGradient>
	<path class="st0" d="M0,61.2c0,33.8,27.5,61.2,61.2,61.2c19.6,0,38.1-9.5,49.6-25.4l1.1-1.5H95l-0.3,0.3
		c-9.1,8.8-21,13.6-33.6,13.6C34.6,109.4,13,87.8,13,61.2C13,34.6,34.6,13,61.2,13c12.6,0,24.5,4.8,33.6,13.6l0.3,0.3h16.9l-1.1-1.5
		C99.3,9.5,80.7,0,61.2,0C27.5,0.1,0,27.5,0,61.2"/>
	<path class="st1" d="M56.1,67.8c0.5-1.2,0.9-2.6,1.4-4c0.5-1.4,0.9-2.8,1.4-4.3c0.5-1.4,0.9-2.9,1.4-4.3c0.5-1.4,0.9-2.8,1.4-4
		l5.5,16.5C67.2,67.8,56.1,67.8,56.1,67.8z M134,47.6c-1.2-2-2.6-3.8-4.3-5.4c-1.7-1.6-3.6-3-5.6-4.2s-4.2-2-6.6-2.7
		c-2.4-0.6-4.8-0.9-7.3-0.9H92.4c-0.5,0-0.9,0.1-1.3,0.5c-0.3,0.3-0.4,0.7-0.4,1.2v31.7h14V47.3h4.8c1.9,0,3.8,0.3,5.6,1
		c1.7,0.7,3.3,1.7,4.6,2.9c1.3,1.3,2.4,2.7,3.1,4.4c0.7,1.7,1.1,3.6,1.1,5.6c0,1.9-0.3,3.6-1,5.3c-0.7,1.6-1.5,3-2.8,4.2
		c-1.1,1.2-2.6,2.1-4.1,2.9c-1.5,0.7-3.2,1.1-5,1.3c-0.5,0.1-1.1,0.1-1.6,0.1s-1.1,0.1-1.6,0.1h-3h-1.6H90.7h-7.4L68.8,37.6
		l-0.9-2.1c-0.1-0.2-0.3-0.4-0.7-0.7c-0.3-0.3-0.6-0.4-1.1-0.4h-9.3c-0.2,0-0.4,0.1-0.6,0.1c-0.2,0.1-0.4,0.2-0.6,0.3
		c-0.2,0.1-0.3,0.3-0.5,0.5c-0.1,0.1-0.2,0.3-0.2,0.5L35.3,86.6c-0.2,0.5-0.1,0.9,0.1,1.1c0.3,0.3,0.7,0.3,1.1,0.3h10.7
		c0.9,0,1.5-0.5,1.8-1.3c0.5-1.2,0.9-2.4,1.4-3.6s0.9-2.4,1.4-3.7H71c0.5,1.2,0.9,2.4,1.3,3.7c0.5,1.2,0.9,2.4,1.4,3.6
		c0.2,0.5,0.4,0.8,0.7,1c0.3,0.2,0.7,0.3,1.3,0.3h6.4h4h6.1h10.7h7.1c2.6,0,5-0.3,7.3-0.9c2.4-0.6,4.6-1.5,6.6-2.6
		c2-1.1,3.9-2.5,5.6-4.1c1.7-1.6,3.1-3.4,4.3-5.4c1.2-2,2.1-4.1,2.8-6.4c0.7-2.3,1-4.7,1-7.3s-0.3-5-1-7.3
		C136.1,51.8,135.2,49.6,134,47.6"/>
	<path class="st1" d="M151.4,80.8c1.7,1.7,3.6,3.1,5.6,4.3c2,1.2,4.2,2.1,6.6,2.8c2.4,0.7,4.8,1,7.3,1c1.5,0,3-0.1,4.4-0.3
		c1.5-0.2,3-0.5,4.5-0.8c1.5-0.3,3-0.8,4.3-1.3c1.3-0.5,2.6-1.2,3.8-2c0.7-0.4,1.1-0.9,1.1-1.6V65.3c0-0.5-0.2-0.9-0.6-1.1
		c-0.4-0.3-0.8-0.4-1.1-0.4h-9.7c-0.5,0-0.9,0.1-1.2,0.5c-0.3,0.3-0.4,0.7-0.4,1.1v9.4c-0.9,0.2-1.8,0.3-2.7,0.5
		c-0.8,0.1-1.7,0.2-2.5,0.2c-2,0-3.8-0.3-5.5-1.1c-1.7-0.7-3.1-1.7-4.3-3s-2.1-2.8-2.8-4.6c-0.7-1.7-1-3.6-1-5.6
		c0-1.9,0.3-3.8,1-5.6c0.7-1.7,1.6-3.3,2.8-4.6c1.2-1.3,2.6-2.4,4.3-3.1s3.5-1.1,5.5-1.1c1.6,0,3.1,0.3,4.5,0.7s2.7,1.1,4,2
		c0.5,0.3,0.9,0.5,1.3,0.3c0.3-0.1,0.6-0.4,0.9-0.8l5.8-8.5c0.3-0.5,0.3-0.9,0.1-1.3c-0.2-0.4-0.5-0.7-0.9-0.9
		c-2.3-1.5-4.7-2.7-7.3-3.5c-2.6-0.8-5.3-1.2-8.2-1.2c-2.6,0-5,0.3-7.3,1c-2.4,0.7-4.6,1.6-6.6,2.8c-2,1.2-3.9,2.6-5.6,4.3
		c-1.7,1.7-3.1,3.6-4.3,5.6c-1.2,2.1-2.1,4.2-2.8,6.6c-0.7,2.4-0.9,4.8-0.9,7.3s0.3,5,0.9,7.3c0.7,2.4,1.5,4.6,2.8,6.6
		C148.3,77.3,149.8,79.1,151.4,80.8"/>
	<path class="st1" d="M215.1,67.8c0.5-1.2,0.9-2.6,1.4-4c0.5-1.4,0.9-2.8,1.4-4.3c0.5-1.5,0.9-2.9,1.4-4.3c0.5-1.4,0.9-2.8,1.4-4
		l5.5,16.5H215.1z M231.7,83.1c0.5,1.2,0.9,2.4,1.4,3.7c0.1,0.5,0.4,0.8,0.7,1c0.3,0.2,0.7,0.3,1.3,0.3h10.3c0.7,0,1.1-0.1,1.3-0.5
		c0.3-0.3,0.3-0.7,0.1-1.1l-18.9-48.9l-0.9-2.1c-0.1-0.2-0.3-0.4-0.7-0.7c-0.3-0.3-0.7-0.4-1.1-0.4H216c-0.2,0-0.4,0.1-0.6,0.1
		c-0.2,0.1-0.4,0.2-0.6,0.3c-0.2,0.1-0.3,0.3-0.5,0.5s-0.2,0.3-0.2,0.5l-19.6,50.8c-0.2,0.5-0.1,0.9,0.1,1.1
		c0.3,0.3,0.7,0.3,1.1,0.3h10.7c0.9,0,1.5-0.5,1.8-1.3c0.5-1.2,0.9-2.4,1.4-3.7c0.5-1.2,0.9-2.4,1.4-3.7h19.2
		C230.8,80.6,231.2,81.9,231.7,83.1"/>
	<path class="st1" d="M292.4,82.9V65.4c0-0.5-0.2-0.9-0.6-1.1s-0.8-0.4-1.1-0.4h-9.8c-0.5,0-0.9,0.1-1.2,0.5
		c-0.3,0.3-0.4,0.7-0.4,1.1v9.3c-0.9,0.2-1.8,0.3-2.7,0.5c-0.8,0.1-1.7,0.2-2.5,0.2c-2,0-3.8-0.3-5.5-1.1c-1.7-0.7-3.1-1.7-4.3-3
		c-1.2-1.3-2.1-2.8-2.8-4.6c-0.7-1.7-1-3.6-1-5.6c0-1.9,0.3-3.8,1-5.6c0.7-1.7,1.6-3.3,2.8-4.6s2.6-2.4,4.3-3.1
		c1.7-0.7,3.5-1.1,5.5-1.1c1.6,0,3.1,0.3,4.5,0.7c1.4,0.5,2.7,1.1,4,2c0.5,0.3,0.9,0.5,1.3,0.3c0.3-0.1,0.6-0.4,0.9-0.8l5.8-8.5
		c0.3-0.5,0.3-0.9,0.1-1.3c-0.2-0.4-0.5-0.7-0.9-0.9c-2.3-1.5-4.7-2.7-7.3-3.5s-5.3-1.2-8.2-1.2c-2.6,0-5,0.3-7.3,1
		c-2.4,0.7-4.6,1.6-6.6,2.8c-2.1,1.2-3.9,2.6-5.6,4.3c-1.7,1.7-3.1,3.6-4.3,5.6c-1.2,2.1-2.1,4.2-2.8,6.6c-0.7,2.4-0.9,4.8-0.9,7.3
		c0,2.6,0.3,5,0.9,7.3c0.7,2.4,1.5,4.6,2.8,6.6c1.2,2,2.6,3.9,4.3,5.6c1.7,1.7,3.6,3.1,5.6,4.3c2,1.2,4.2,2.1,6.6,2.8
		c2.4,0.7,4.8,1,7.3,1c1.5,0,3-0.1,4.4-0.3c1.5-0.2,3-0.5,4.5-0.8c1.5-0.3,3-0.8,4.3-1.3c1.3-0.5,2.6-1.2,3.8-2
		C292,84,292.4,83.5,292.4,82.9"/>
	<path class="st1" d="M303.7,88.1h36.5c0.9,0,1.4-0.3,1.5-1c0.2-0.2,0.3-0.4,0.3-0.7v-9.1c0-1.1-0.5-1.7-1.6-1.7h-24.2v-9.3h18.1
		c0.5,0,0.9-0.1,1.1-0.5c0.3-0.3,0.4-0.6,0.4-0.9v-7.8c0-0.5-0.1-0.9-0.5-1.1c-0.3-0.2-0.7-0.3-1.1-0.3h-18.1v-8.9h23.4
		c0.5,0,1-0.2,1.3-0.5c0.3-0.3,0.4-0.7,0.4-1.1v-9c0-0.5-0.1-0.9-0.4-1.3c-0.3-0.3-0.7-0.5-1.2-0.5h-35.9c-0.5,0-0.9,0.1-1.1,0.5
		c-0.3,0.3-0.4,0.7-0.4,1.2v50.4c0,0.5,0.1,0.9,0.4,1.2C302.8,88,303.2,88.1,303.7,88.1"/>
	<g>
		<path class="st1" d="M240.5,110.8c0-0.1,0.1-0.3,0.1-0.3c0.1-0.1,0.3-0.1,0.4-0.1h1.3c0.2,0,0.3,0.1,0.4,0.1
			c0.1,0.1,0.1,0.2,0.1,0.3v4.5c0.1-0.1,0.2-0.2,0.4-0.3c0.1-0.1,0.3-0.2,0.5-0.3c0.1-0.1,0.3-0.1,0.5-0.2c0.2-0.1,0.4-0.1,0.6-0.1
			c0.6,0,1.1,0.1,1.6,0.3c0.5,0.2,0.9,0.5,1.3,0.9c0.4,0.4,0.6,0.8,0.8,1.3c0.2,0.5,0.3,1.1,0.3,1.7s-0.1,1.1-0.3,1.7
			c-0.2,0.5-0.5,0.9-0.8,1.3s-0.7,0.7-1.3,0.9c-0.5,0.2-1,0.3-1.5,0.3c-0.5,0-0.9-0.1-1.3-0.3c-0.3-0.2-0.7-0.5-0.9-0.8l-0.1,0.5
			c0,0.1-0.1,0.2-0.1,0.3c-0.1,0.1-0.1,0.1-0.2,0.1c-0.1,0-0.1,0.1-0.2,0.1c-0.1,0-0.1,0-0.3,0h-0.8c-0.1,0-0.3-0.1-0.3-0.1
			c-0.1-0.1-0.1-0.2-0.1-0.3L240.5,110.8L240.5,110.8z M242.6,118.7c0,0.3,0.1,0.5,0.1,0.8c0.1,0.3,0.3,0.5,0.4,0.7
			c0.1,0.2,0.4,0.3,0.6,0.5s0.5,0.1,0.7,0.1s0.5-0.1,0.7-0.1c0.2-0.1,0.4-0.3,0.6-0.5c0.2-0.2,0.3-0.4,0.4-0.7
			c0.1-0.3,0.1-0.5,0.1-0.8c0-0.3-0.1-0.5-0.1-0.8s-0.2-0.5-0.4-0.7c-0.2-0.2-0.3-0.3-0.6-0.5c-0.2-0.1-0.5-0.2-0.7-0.2
			s-0.5,0.1-0.7,0.2c-0.2,0.1-0.4,0.3-0.6,0.5c-0.2,0.2-0.3,0.4-0.4,0.7C242.7,118.1,242.6,118.4,242.6,118.7z"/>
		<path class="st1" d="M253.5,125.6c-0.1,0.1-0.1,0.2-0.2,0.3c-0.1,0.1-0.2,0.1-0.3,0.1h-1.3c-0.1,0-0.3,0-0.3-0.1
			c-0.1-0.1-0.1-0.1-0.1-0.3c0-0.1,0-0.1,0-0.2l1-2.8l-3.1-7.5l0,0c0-0.1-0.1-0.1-0.1-0.2c0-0.1,0-0.1,0-0.1c0-0.3,0.1-0.3,0.5-0.3
			h1.5c0.1,0,0.3,0.1,0.3,0.1c0.1,0.1,0.1,0.2,0.2,0.3l0,0l0.7,1.7c0.2,0.6,0.4,1.1,0.6,1.7c0.2,0.5,0.4,1.1,0.6,1.6l1.8-4.9
			c0.1-0.3,0.3-0.3,0.5-0.3h1.5c0.2,0,0.3,0.1,0.3,0.1c0.1,0.1,0.1,0.2,0.1,0.3c0,0,0,0.1,0,0.1c0,0.1,0,0.1-0.1,0.2L253.5,125.6z"
			/>
	</g>
	<polygon class="st2" points="318.4,122.7 321.8,122.7 321.8,110 318.4,108 	"/>
	<path class="st2" d="M333,119.7c-3.2,0-5.8-2.6-5.8-5.8c0-3.2,2.6-5.8,5.8-5.8c3.2,0,5.8,2.6,5.8,5.8S336.3,119.7,333,119.7
		 M338.6,100.2v6.9c-1.5-1.4-3.6-2.4-5.9-2.4c-4.9,0-8.9,4-8.9,9.1c0,5,4,9.1,8.9,9.1c2.3,0,4.3-0.9,5.9-2.4v2.1h3.4V98.3
		L338.6,100.2z"/>
	<path class="st2" d="M288.1,104.9c-2.6,0-4.8,1.4-5.9,3.5c-1.1-2.1-3.4-3.5-5.9-3.5c-2,0-3.8,0.9-5,2.3v-1.9h-3.4v17.5h3.4v-10.5
		c0-2.4,1.9-4.2,4.2-4.2s4.2,1.9,4.2,4.2v10.5h3.4v-10.5c0-2.4,1.9-4.2,4.2-4.2c2.4,0,4.2,1.9,4.2,4.2v10.5h3.4v-11.1
		C294.8,107.9,291.8,104.9,288.1,104.9"/>
	<path class="st2" d="M306.1,119.7c-3.2,0-5.8-2.6-5.8-5.8c0-3.2,2.6-5.8,5.8-5.8c3.2,0,5.8,2.6,5.8,5.8S309.3,119.7,306.1,119.7
		 M311.7,104.1v3c-1.5-1.4-3.6-2.4-5.9-2.4c-4.9,0-8.9,4-8.9,9.1c0,5,4,9.1,8.9,9.1c2.3,0,4.3-0.9,5.9-2.4v1.4
		c0,3.2-2.6,5.7-5.7,5.7c-2.1,0-3.9-1.1-4.8-2.8l-2.9,1.7c1.5,2.7,4.5,4.4,7.8,4.4c5,0,9.1-4,9.1-9.1v-15.9L311.7,104.1z"/>
	<polygon class="st3" points="315.6,97.8 311.7,99.4 321.8,105.2 325.1,103.3 	"/>
	<polygon class="st4" points="318.4,103.3 321.8,105.2 342,93.6 	"/>
	<path class="st5" d="M363,122.8c-0.3,0-0.5-0.1-0.5-0.3V34.9c0.1-0.3,0.3-0.4,0.5-0.4c0.2,0,0.5,0.2,0.5,0.4v87.6
		C363.5,122.7,363.2,122.8,363,122.8z"/>
</g>
</svg>
