<svg xmlns="http://www.w3.org/2000/svg" width="48" height="43" viewBox="0 0 48 43">
  <defs>
    <linearGradient id="avatar-deactivated-a" x1="50%" x2="50%" y1="100%" y2="0%">
      <stop offset="0%" stop-color="#999"/>
      <stop offset="100%" stop-color="#666"/>
    </linearGradient>
  </defs>
  <g fill="none" fill-rule="evenodd" transform="translate(0 -5)">
    <rect width="48" height="48"/>
    <path fill="url(#avatar-deactivated-a)" fill-rule="nonzero" d="M44.5434783,38.5249091 C43.2834783,37.8012273 33.9246852,34.6086054 29.7044678,32.8824463 C29.5159912,31.9602458 29.4217529,31.2743937 29.4217529,30.8248901 C29.4217529,30.2734172 29.5159912,29.4578044 29.7044678,28.3780518 C30.9253373,27.4764154 32.8043478,21.6717134 32.8043478,19.565918 L32.8043478,16.397644 C32.8043478,11.503894 29.8695652,5.94580078 24,5.94580078 C18.1304348,5.94580078 15.1956522,11.503894 15.1956522,16.397644 C15.1956522,16.397644 15.1956522,14.6227362 15.1956522,19.565918 C15.1956522,21.6914862 16.9062056,27.4803699 18.1270752,28.3780518 C18.3374023,29.4578044 18.4425659,30.2734172 18.4425659,30.8248901 C18.4425659,31.2743937 18.3374023,31.9602458 18.1270752,32.8824463 C14.151423,34.6086054 4.71652174,37.79925 3.45652174,38.5249091 C1.88934783,39.4245682 1.56749613e-13,40.2807273 1.56749613e-13,42.3608182 C1.56749613e-13,42.9276364 1.04499742e-13,44.8073636 0,48 L48,48 C48,44.8073636 48,42.9276364 48,42.3608182 C48,40.2807273 46.1106522,39.4245682 44.5434783,38.5249091 Z" opacity=".452"/>
  </g>
</svg>
