<svg id="Layer_1" data-name="Layer 1" xmlns="http://www.w3.org/2000/svg" viewBox="0 0 20 20"><defs><style>.cls-1{fill:#1d1d1b;opacity:0.7;}.cls-2,.cls-4{fill:none;}.cls-3{fill:#fff;}.cls-4{stroke:#fff;stroke-miterlimit:10;stroke-width:0.3px;}</style></defs><title>Artboard 1 copy 2</title><rect class="cls-1" x="-0.33" y="-0.4" width="20.69" height="20.69"/><polygon class="cls-2" points="5.1 12.08 7.99 12.08 6.54 7.75 5.1 12.08"/><polygon class="cls-2" points="5.11 12.08 8 12.08 6.55 7.75 5.11 12.08"/><path class="cls-3" d="M8.65,11.8H6.33l-.44,1.32H4.48L6.87,6.7H8.1l2.41,6.43H9.1Zm-2-1.07H8.29L7.49,8.32Z"/><path class="cls-3" d="M10.82,10.7a2.89,2.89,0,0,1,.5-1.78,1.63,1.63,0,0,1,1.37-.66,1.46,1.46,0,0,1,1.15.52V6.34h1.28v6.78H14l-.06-.51a1.5,1.5,0,0,1-1.23.6,1.62,1.62,0,0,1-1.35-.66A3,3,0,0,1,10.82,10.7Zm1.28.09a1.91,1.91,0,0,0,.23,1,.76.76,0,0,0,.68.36.85.85,0,0,0,.83-.5V9.79a.84.84,0,0,0-.82-.5Q12.1,9.29,12.1,10.79Z"/><rect class="cls-4" x="2.31" y="2.58" width="15.4" height="14.84" rx="0.29" ry="0.29"/></svg>